<svg width="50" height="50" viewBox="0 0 50 50" fill="none" xmlns="http://www.w3.org/2000/svg">
<path d="M49.5 0.5H0.5V49.5H49.5V0.5Z" stroke="black"/>
<path d="M25 48L19.6309 37.962L8.73655 41.2635L12.038 30.3691L2 25L12.038 19.631L8.73654 8.73654L19.6309 12.038L25 2L30.369 12.038L41.2635 8.73654L37.962 19.631L48 25L37.962 30.3691L41.2635 41.2635L30.369 37.962L25 48Z" fill="black"/>
<path d="M9.6665 9.66602L24.9998 23.7216L12.6152 19.8339L9.6665 9.66602Z" fill="white" stroke="black" stroke-width="0.2"/>
<path d="M4.25732 25.5703L22.7439 23.793L12.3822 29.6766L4.25732 25.5703Z" fill="white" stroke="black" stroke-width="0.2"/>
<path d="M9.78271 40.4375L23.6061 24.8945L19.9051 37.3362L9.78271 40.4375Z" fill="white" stroke="black" stroke-width="0.2"/>
<path d="M26.2812 27.334L40.7705 40.9717L36.87 30.074L26.2812 27.334Z" fill="white" stroke="black" stroke-width="0.2"/>
<path d="M40.7408 9.45703L26.9175 25L30.6185 12.5583L40.7408 9.45703Z" fill="white" stroke="black" stroke-width="0.2"/>
<path d="M24.9115 47.3611L23.4575 26.6113L29.7686 37.9542L24.9115 47.3611Z" fill="white" stroke="black" stroke-width="0.2"/>
<path d="M25.6391 24.3623L25.2052 2.64258L19.6865 14.0039L25.6391 24.3623Z" fill="white" stroke="black" stroke-width="0.2"/>
<path d="M46.7231 24.8736L25.9561 26.0574L37.3802 19.8945L46.7231 24.8736Z" fill="white" stroke="black" stroke-width="0.2"/>
<path d="M24.3609 22.4436C22.9495 22.4436 21.8054 23.5877 21.8054 24.9991C21.8054 26.4105 22.9495 27.5547 24.3609 27.5547C25.7723 27.5547 26.9165 26.4105 26.9165 24.9991C26.9165 23.5877 25.7723 22.4436 24.3609 22.4436Z" fill="black"/>
</svg>
